<?xml version="1.0" encoding="UTF-8" standalone="no" ?>
<!DOCTYPE svg PUBLIC "-//W3C//DTD SVG 1.1//EN" "http://www.w3.org/Graphics/SVG/1.1/DTD/svg11.dtd">
<svg xmlns="http://www.w3.org/2000/svg" xmlns:xlink="http://www.w3.org/1999/xlink" version="1.1" width="1080" height="1080" viewBox="0 0 1080 1080" xml:space="preserve">
<desc>Created with Fabric.js 5.2.4</desc>
<defs>
</defs>
<rect x="0" y="0" width="100%" height="100%" fill="transparent"></rect>
<g transform="matrix(1 0 0 1 540 540)" id="823b4e28-b501-4bf1-9b19-09a5838f8f3f"  >
<rect style="stroke: none; stroke-width: 1; stroke-dasharray: none; stroke-linecap: butt; stroke-dashoffset: 0; stroke-linejoin: miter; stroke-miterlimit: 4; fill: rgb(255,255,255); fill-rule: nonzero; opacity: 1; visibility: hidden;" vector-effect="non-scaling-stroke"  x="-540" y="-540" rx="0" ry="0" width="1080" height="1080" />
</g>
<g transform="matrix(1 0 0 1 540 540)" id="b9dff880-2802-4f0b-b11a-3e91a352333b"  >
</g>
<g transform="matrix(1.18 0 0 1.18 540 514.19)"  >
<g style="" vector-effect="non-scaling-stroke"   >
		<g transform="matrix(12.5 0 0 12.5 -234.22 -25.06)"  >
<path style="stroke: none; stroke-width: 1; stroke-dasharray: none; stroke-linecap: butt; stroke-dashoffset: 0; stroke-linejoin: miter; stroke-miterlimit: 4; fill: rgb(255,255,255); fill-rule: nonzero; opacity: 1;" vector-effect="non-scaling-stroke"  transform=" translate(-13.26, -29.88)" d="M 18.525 31.482 L 18.043 31.482 C 17.851 33.448 17.581 35.839 14.187999999999999 35.839 L 12.626 35.839 C 11.721 35.839 11.681999999999999 35.702999999999996 11.681999999999999 35.067 L 11.681999999999999 24.831 C 11.681999999999999 24.176 11.681999999999999 23.906 13.493999999999998 23.906 L 14.129999999999997 23.906 L 14.129999999999997 23.328 C 13.435999999999996 23.386 11.700999999999997 23.386 10.909999999999997 23.386 C 10.158999999999997 23.386 8.654999999999998 23.386 7.9999999999999964 23.328 L 7.9999999999999964 23.906 L 8.442999999999996 23.906 C 9.927999999999995 23.906 9.965999999999996 24.118 9.965999999999996 24.811999999999998 L 9.965999999999996 34.931999999999995 C 9.965999999999996 35.626 9.927999999999995 35.839 8.442999999999996 35.839 L 8 35.839 L 8 36.436 L 18.005000000000003 36.436 L 18.525000000000002 31.482 z" stroke-linecap="round" />
</g>
		<g transform="matrix(12.5 0 0 12.5 -177.11 -51.2)"  >
<path style="stroke: none; stroke-width: 1; stroke-dasharray: none; stroke-linecap: butt; stroke-dashoffset: 0; stroke-linejoin: miter; stroke-miterlimit: 4; fill: rgb(255,255,255); fill-rule: nonzero; opacity: 1;" vector-effect="non-scaling-stroke"  transform=" translate(-17.83, -27.79)" d="M 18.198 23.308 C 18.12 23.078 18.082 23 17.831 23 C 17.581 23 17.523 23.077 17.445999999999998 23.308 L 14.341999999999999 31.174 C 14.206999999999999 31.501 13.975999999999999 32.099 12.780999999999999 32.099 L 12.780999999999999 32.580999999999996 L 15.768999999999998 32.580999999999996 L 15.768999999999998 32.099 C 15.170999999999998 32.099 14.804999999999998 31.828999999999997 14.804999999999998 31.442999999999998 C 14.804999999999998 31.346999999999998 14.824999999999998 31.307999999999996 14.862999999999998 31.173 L 15.517999999999997 29.516 L 19.334999999999997 29.516 L 20.105999999999998 31.482 C 20.145988696454953 31.553462148418852 20.17211366811265 31.631837063391945 20.183 31.713 C 20.183 32.099000000000004 19.451 32.099000000000004 19.084 32.099000000000004 L 19.084 32.581 L 22.881999999999998 32.581 L 22.881999999999998 32.099000000000004 L 22.612 32.099000000000004 C 21.706 32.099000000000004 21.61 31.964000000000002 21.474999999999998 31.579000000000004 L 18.197999999999997 23.309000000000005 z M 17.427 24.678 L 19.142 29.034 L 15.710999999999999 29.034 L 17.427 24.677 z" stroke-linecap="round" />
</g>
		<g transform="matrix(12.5 0 0 12.5 -52.77 -24.34)"  >
<path style="stroke: none; stroke-width: 1; stroke-dasharray: none; stroke-linecap: butt; stroke-dashoffset: 0; stroke-linejoin: miter; stroke-miterlimit: 4; fill: rgb(255,255,255); fill-rule: nonzero; opacity: 1;" vector-effect="non-scaling-stroke"  transform=" translate(-27.78, -29.94)" d="M 33.639 23.443 L 21.899 23.443 L 21.552 27.761000000000003 L 22.015 27.761000000000003 C 22.285 24.658 22.573 24.021 25.485 24.021 C 25.831 24.021 26.333 24.021 26.525 24.061 C 26.93 24.137 26.93 24.349 26.93 24.793 L 26.93 34.913 C 26.93 35.568999999999996 26.93 35.839 24.906 35.839 L 24.134999999999998 35.839 L 24.134999999999998 36.436 C 24.924999999999997 36.378 26.872 36.378 27.758999999999997 36.378 C 28.645999999999994 36.378 30.630999999999997 36.378 31.421999999999997 36.436 L 31.421999999999997 35.839 L 30.650999999999996 35.839 C 28.626999999999995 35.839 28.626999999999995 35.568999999999996 28.626999999999995 34.913 L 28.626999999999995 24.793 C 28.626999999999995 24.407 28.626999999999995 24.137 28.973999999999997 24.06 C 29.185999999999996 24.022 29.705999999999996 24.022 30.071999999999996 24.022 C 32.964 24.022 33.25299999999999 24.657999999999998 33.522 27.762 L 34.004999999999995 27.762 L 33.638999999999996 23.443 z" stroke-linecap="round" />
</g>
		<g transform="matrix(12.5 0 0 12.5 75.43 29.52)"  >
<path style="stroke: none; stroke-width: 1; stroke-dasharray: none; stroke-linecap: butt; stroke-dashoffset: 0; stroke-linejoin: miter; stroke-miterlimit: 4; fill: rgb(255,255,255); fill-rule: nonzero; opacity: 1;" vector-effect="non-scaling-stroke"  transform=" translate(-38.03, -34.25)" d="M 43.971 35.82 L 43.489 35.82 C 43.007 38.769 42.564 40.176 39.268 40.176 L 36.723 40.176 C 35.817 40.176 35.778 40.041000000000004 35.778 39.405 L 35.778 34.277 L 37.494 34.277 C 39.364 34.277 39.576 34.894 39.576 36.532000000000004 L 40.058 36.532000000000004 L 40.058 31.443000000000005 L 39.576 31.443000000000005 C 39.576 33.08200000000001 39.364 33.679 37.494 33.679 L 35.778 33.679 L 35.778 29.072000000000003 C 35.778 28.436000000000003 35.817 28.302000000000003 36.723 28.302000000000003 L 39.19 28.302000000000003 C 42.14 28.302000000000003 42.641 29.362000000000002 42.949999999999996 32.041000000000004 L 43.431 32.041000000000004 L 42.891 27.723000000000006 L 32.097 27.723000000000006 L 32.097 28.301000000000005 L 32.541000000000004 28.301000000000005 C 34.025000000000006 28.301000000000005 34.06400000000001 28.513000000000005 34.06400000000001 29.207000000000004 L 34.06400000000001 39.27 C 34.06400000000001 39.964000000000006 34.025000000000006 40.176 32.541000000000004 40.176 L 32.097 40.176 L 32.097 40.773 L 43.162 40.773 L 43.972 35.819 z" stroke-linecap="round" />
</g>
		<g transform="matrix(12.5 0 0 12.5 215.78 -25.06)"  >
<path style="stroke: none; stroke-width: 1; stroke-dasharray: none; stroke-linecap: butt; stroke-dashoffset: 0; stroke-linejoin: miter; stroke-miterlimit: 4; fill: rgb(255,255,255); fill-rule: nonzero; opacity: 1;" vector-effect="non-scaling-stroke"  transform=" translate(-49.26, -29.88)" d="M 49.773 29.014 L 52.414 25.159 C 52.819 24.541999999999998 53.474000000000004 23.924999999999997 55.19 23.906 L 55.19 23.328 L 50.602 23.328 L 50.602 23.906 C 51.373999999999995 23.926 51.797999999999995 24.349 51.797999999999995 24.793 C 51.797999999999995 24.985 51.75899999999999 25.024 51.623999999999995 25.236 L 49.425999999999995 28.475 L 46.958999999999996 24.773000000000003 C 46.919999999999995 24.716000000000005 46.824 24.561000000000003 46.824 24.484 C 46.824 24.253 47.248 23.925 48.058 23.906000000000002 L 48.058 23.328000000000003 C 47.402 23.386000000000003 45.995 23.386000000000003 45.263 23.386000000000003 C 44.665 23.386000000000003 43.47 23.366000000000003 42.757 23.328000000000003 L 42.757 23.906000000000002 L 43.123 23.906000000000002 C 44.183 23.906000000000002 44.549 24.041000000000004 44.916 24.581000000000003 L 48.443 29.921000000000003 L 45.300999999999995 34.566 C 45.03099999999999 34.952000000000005 44.452999999999996 35.839000000000006 42.52499999999999 35.839000000000006 L 42.52499999999999 36.43600000000001 L 47.11299999999999 36.43600000000001 L 47.11299999999999 35.839000000000006 C 46.22699999999999 35.819 45.898999999999994 35.29900000000001 45.898999999999994 34.952000000000005 C 45.898999999999994 34.778000000000006 45.956999999999994 34.702000000000005 46.09199999999999 34.489000000000004 L 48.80999999999999 30.460000000000004 L 51.85499999999999 35.048 C 51.89399999999999 35.125 51.95199999999999 35.202000000000005 51.95199999999999 35.260000000000005 C 51.95199999999999 35.492000000000004 51.52799999999999 35.82000000000001 50.69899999999999 35.839000000000006 L 50.69899999999999 36.43600000000001 C 51.37399999999999 36.37800000000001 52.78099999999999 36.37800000000001 53.49399999999999 36.37800000000001 C 54.303999999999995 36.37800000000001 55.18999999999999 36.39800000000001 55.99999999999999 36.43600000000001 L 55.99999999999999 35.839000000000006 L 55.63399999999999 35.839000000000006 C 54.63099999999999 35.839000000000006 54.22699999999999 35.742000000000004 53.821999999999996 35.145 L 49.772999999999996 29.015000000000004 z" stroke-linecap="round" />
</g>
</g>
</g>
</svg>